<?xml version="1.0" encoding="UTF-8"?>
<svg width="170px" height="106px" viewBox="0 0 170 106" version="1.1" xmlns="http://www.w3.org/2000/svg" xmlns:xlink="http://www.w3.org/1999/xlink">
    <!-- Generator: Sketch 59.1 (86144) - https://sketch.com -->
    <title>Brand/01 PeYa/Logo/03 Vertical</title>
    <desc>Created with Sketch.</desc>
    <g id="Page-1" stroke="none" stroke-width="1" fill="none" fill-rule="evenodd">
        <g id="signup_ios-copy" transform="translate(-102.000000, -124.000000)" fill="#F52F41">
            <g id="Brand/01-PeYa/Logo/03-Vertical" transform="translate(102.000000, 124.000000)">
                <path d="M108.254983,87.1297268 C113.705554,87.1297268 117.227496,90.4505933 117.227496,95.5896385 C117.227496,101.595859 112.791933,105.95439 106.679794,105.95439 C101.228657,105.95439 97.7067142,102.63409 97.7067142,97.4950444 C97.7067142,91.4888243 102.142277,87.1297268 108.254983,87.1297268 Z M98.0635531,80.8075628 C98.1830657,80.8075628 98.2963479,80.8608054 98.3722469,80.9531304 C98.448146,81.0448889 98.4792986,81.1661008 98.4566421,81.2833479 L98.4566421,81.2833479 L93.6851976,105.081664 C93.6483809,105.269712 93.4835553,105.405084 93.2921085,105.405084 L93.2921085,105.405084 L88.7982052,105.407917 C88.6803918,105.407917 88.5682424,105.355807 88.4923434,105.265747 C88.4164444,105.175122 88.3824597,105.055609 88.4045497,104.940061 C88.5036716,104.418397 88.5920317,103.966401 88.6860559,103.537062 C87.2785251,105.096391 85.3946428,105.954503 83.2485122,105.954503 C78.7795311,105.954503 75.7769874,102.599085 75.7769874,97.6050414 C75.7769874,91.5348169 79.7509256,87.1292737 85.2269852,87.1292737 C87.9780424,87.1292737 90.1893101,88.3561195 91.3215653,90.3498855 C91.4303162,89.74949 93.1691974,81.1315498 93.1691974,81.1315498 C93.2054476,80.9435014 93.3702732,80.8075628 93.56172,80.8075628 L93.56172,80.8075628 Z M66.4309827,80.8075628 C66.5504954,80.8075628 66.6632111,80.8608054 66.7391102,80.9531304 C66.8150092,81.0448889 66.8455954,81.1661008 66.822939,81.2833479 L66.822939,81.2833479 L62.0514944,105.081664 C62.0152441,105.269712 61.8504186,105.405084 61.6589717,105.405084 L61.6589717,105.405084 L57.1650685,105.407917 C57.047255,105.407917 56.9345393,105.355807 56.8586402,105.265747 C56.7833076,105.175122 56.7498894,105.055609 56.771413,104.940061 C56.8705349,104.418397 56.9588949,103.966401 57.0523527,103.537062 C55.6453883,105.096391 53.761506,105.954503 51.6153755,105.954503 C47.1463943,105.954503 44.1438506,102.599085 44.1438506,97.6050414 C44.1438506,91.5348169 48.1183552,87.1292737 53.5938484,87.1292737 C56.3443392,87.1292737 58.5561734,88.3561195 59.688995,90.3498855 C59.7971794,89.74949 61.5354942,81.1315498 61.5354942,81.1315498 C61.5728773,80.9435014 61.7377028,80.8075628 61.9285833,80.8075628 L61.9285833,80.8075628 Z M125.113633,87.1545356 C127.321503,86.9608231 129.729881,87.4241472 132.075955,88.4946636 C132.275332,88.5852893 132.363125,88.8180841 132.274765,89.0174607 L132.274765,89.0174607 L130.718268,92.5150474 C130.674088,92.6130365 130.593092,92.6889355 130.49227,92.7263186 C130.392582,92.7637017 130.279866,92.7580376 130.184143,92.711592 C128.60499,91.9565664 126.99525,91.5855673 125.767272,91.6926189 C124.531363,91.8013698 124.581774,92.3768432 124.5982,92.5660244 C124.628219,92.9053044 124.696189,93.0848567 125.989871,93.7928702 L125.989871,93.7928702 L128.194908,94.9075666 C130.561373,96.1038262 131.604135,97.4751068 131.794449,99.6433273 C132.109373,103.234372 129.820507,105.511343 125.514086,105.889139 C122.640118,106.140626 119.834685,105.395795 117.400818,103.733946 C117.230894,103.617265 117.177085,103.390135 117.279039,103.210016 L117.279039,103.210016 L119.24052,99.7503789 C119.294329,99.6569211 119.383255,99.5883854 119.488041,99.5617641 C119.588296,99.5362756 119.703278,99.5515687 119.79447,99.6087762 C121.789369,100.839587 123.65286,101.419592 125.183302,101.285352 C125.685708,101.241172 126.518332,101.058788 126.454894,100.330384 C126.426574,100.012627 126.333682,99.7639728 125.333401,99.2281482 L125.333401,99.2281482 L122.88594,97.9463605 C120.667309,96.7699253 119.503335,95.2094636 119.324915,93.1743496 C119.029249,89.8002405 121.247313,87.4926829 125.113633,87.1545356 Z M33.9050692,87.1121115 C38.9653833,87.1121115 42.1089632,89.918677 42.1089632,94.4358031 C42.1089632,95.420225 41.9441377,96.3553693 41.6597995,97.6365905 C41.6195843,97.8195412 41.4575908,97.9492492 41.2701088,97.9492492 L41.2701088,97.9492492 L28.6629373,97.9900308 C28.6957891,100.038172 30.1928129,101.216873 32.7694156,101.216873 C34.0291132,101.216873 35.1698645,100.929136 36.379718,100.285127 C36.5303833,100.205263 36.7167324,100.229053 36.8351123,100.351397 L36.8351123,100.351397 L39.6003298,103.20894 C39.7662882,103.380562 39.7362684,103.668299 39.5368918,103.800273 C37.3159951,105.283136 35.2083805,105.936774 32.6595319,105.936774 C27.0345063,105.936774 23.5403181,102.709366 23.5403181,97.5131129 C23.5403181,91.4859356 27.8994155,87.1121115 33.9050692,87.1121115 Z M156.008794,80.6672062 C156.172486,80.6672062 156.322585,80.7595312 156.396219,80.9062316 C156.470418,81.0523655 156.455125,81.2273865 156.357703,81.3593602 L156.357703,81.3593602 L144.763274,96.3545196 L143.189218,104.413412 C143.075369,104.992851 142.567865,105.411428 141.977099,105.411428 L141.977099,105.411428 L137.4747,105.411428 C137.344991,105.411428 137.221514,105.353654 137.139951,105.2534 C137.057255,105.154278 137.023837,105.022304 137.048759,104.895428 L137.048759,104.895428 L138.818792,96.2083857 L132.917358,81.2591055 C132.870913,81.1271318 132.891303,80.979865 132.9723,80.8648836 C133.05443,80.751035 133.185837,80.6819329 133.326307,80.6819329 L133.326307,80.6819329 L138.892992,80.6819329 C139.085572,80.6819329 139.254929,80.8093753 139.309304,80.9945916 C139.309304,80.9945916 142.41097,89.8611863 142.531049,90.6734193 C142.972283,89.815307 149.287197,80.8592195 149.287197,80.8592195 C149.368193,80.7391404 149.503566,80.6672062 149.647434,80.6672062 L149.647434,80.6672062 Z M156.4161,87.905653 C157.728473,87.4055122 159.088426,87.1800807 160.490859,87.267308 C162.024133,87.362465 163.573833,88.0993655 164.565618,89.3012892 L164.565618,89.3012892 L164.570149,89.280332 C164.675502,88.6952296 164.84146,87.8580745 164.84146,87.8580745 C164.877711,87.6751238 165.038005,87.5425837 165.224354,87.5425837 L165.224354,87.5425837 L169.610073,87.5425837 C169.726753,87.5425837 169.836637,87.5946935 169.91027,87.6847528 C169.98447,87.7742457 170.015056,87.8920591 169.992966,88.0064741 L169.992966,88.0064741 L166.623955,104.927997 C166.587705,105.111514 166.42741,105.242921 166.241061,105.242921 L166.241061,105.242921 L161.862706,105.245753 C161.747724,105.245753 161.638407,105.194776 161.564774,105.106982 C161.490574,105.019189 161.457722,104.903075 161.479812,104.789792 C161.553446,104.396703 161.666728,103.82916 161.756221,103.396422 C160.041695,104.855496 158.156114,105.502904 155.989592,105.40095 C151.95788,105.210636 149.312175,102.495829 149.270827,98.4465579 C149.223815,93.7934932 152.098917,89.5493771 156.4161,87.905653 Z M69.1517936,89.0671916 L73.8014598,89.0671916 C73.9249374,89.0671916 74.041618,89.1170358 74.1197827,89.201431 C74.1818613,89.2698534 74.2149397,89.3549509 74.2137978,89.4413535 L74.2064436,89.50616 L71.0617308,105.107379 C71.0292026,105.255455 70.8997142,105.368575 70.7388965,105.397873 L70.6561807,105.405311 L66.005948,105.405311 C65.8830369,105.405311 65.7657899,105.356033 65.6881916,105.270505 C65.6256598,105.202989 65.5921283,105.118073 65.5933971,105.031416 L65.6009643,104.966343 L68.7468099,89.3651237 C68.779338,89.2170477 68.9084103,89.1039274 69.0691092,89.0746293 L69.1517936,89.0671916 L73.8014598,89.0671916 Z M14.4735539,80.807053 C19.9093983,80.807053 23.1543657,83.6328765 23.1543657,88.3652387 C23.1543657,93.7659657 19.2546274,97.1208168 12.9770965,97.1208168 C12.9770965,97.1208168 8.3513346,97.089454 7.60369932,97.0855337 L7.50840029,97.0851329 C7.48404462,97.205212 6.61063917,101.882066 6.13655334,103.989114 C5.84825024,105.270902 4.58288852,105.255042 4.58288852,105.255042 L4.58288852,105.255042 L2.26570195,105.270902 L0.418069927,105.270902 C0.295725194,105.270902 0.180177392,105.216526 0.103145523,105.121936 C0.0261136549,105.027912 -0.0169335657,104.904434 0.00628927702,104.784921 L0.00628927702,104.784921 L4.73808508,81.1378369 C4.7760346,80.9458237 4.94425861,80.807053 5.13967033,80.807053 L5.13967033,80.807053 Z M86.5229331,92.0882002 C85.8743927,92.0882002 85.2541729,92.2252716 84.6809651,92.4931839 C84.1003941,92.7656275 83.5860931,93.1360602 83.1533552,93.5954194 C82.7155197,94.0587434 82.3586809,94.6081619 82.091335,95.2289481 C81.8228563,95.852 81.6687925,96.5209311 81.6319758,97.2181828 C81.6019561,97.7953554 81.6631284,98.3243831 81.8143601,98.7905392 C81.9627597,99.2487655 82.1898905,99.6441203 82.4878225,99.9652752 C82.7868874,100.285864 83.151656,100.535651 83.5719328,100.70784 C84.4747916,101.076573 85.7044695,101.052218 86.6968212,100.638171 C87.2275481,100.417271 87.7084309,100.107444 88.1247428,99.7160544 C88.5467188,99.3201333 88.9086553,98.8477467 89.1992241,98.3107892 C89.4903592,97.7732654 89.6953999,97.1751356 89.8075493,96.5339586 C89.9213978,95.8536992 89.9213978,95.2283817 89.80585,94.6812289 C89.6931343,94.1425722 89.4846951,93.6764161 89.1873294,93.2940888 C88.8922294,92.9145936 88.5133006,92.6155287 88.063004,92.4065231 C87.609309,92.1952519 87.0910431,92.0882002 86.5229331,92.0882002 Z M54.8133308,92.0882002 C54.1642241,92.0882002 53.5445706,92.2252716 52.9713629,92.4931839 C52.3907919,92.7656275 51.8764909,93.1360602 51.443753,93.5954194 C51.0064839,94.0587434 50.6490787,94.6081619 50.3817328,95.2289481 C50.113254,95.852 49.9591903,96.5209311 49.9223736,97.2181828 C49.8923538,97.7953554 49.9535262,98.3243831 50.1047579,98.7905392 C50.2531575,99.2487655 50.4797218,99.6441203 50.7782203,99.9652752 C51.0772852,100.285864 51.4420538,100.535651 51.8623306,100.70784 C52.7651894,101.076573 53.9948672,101.052218 54.9872189,100.638171 C55.5179459,100.417271 55.9982622,100.107444 56.4151406,99.7160544 C56.8371166,99.3201333 57.1984867,98.8477467 57.4896219,98.3107892 C57.780757,97.7732654 57.9857977,97.1751356 58.097947,96.5339586 C58.2112292,95.8536992 58.2112292,95.2283817 58.0962478,94.6812289 C57.9829657,94.1425722 57.7750929,93.6764161 57.4777272,93.2940888 C57.1826272,92.9145936 56.8036984,92.6155287 56.3534018,92.4065231 C55.8997067,92.1952519 55.3814409,92.0882002 54.8133308,92.0882002 Z M107.898144,92.4386952 C105.260935,92.4386952 103.346467,94.4256643 103.346467,97.1625613 C103.346467,99.3432428 104.725677,100.645421 107.036633,100.645421 C109.674408,100.645421 111.587744,98.6590186 111.587744,95.9215552 C111.587744,93.7414401 110.208533,92.4386952 107.898144,92.4386952 Z M159.986187,92.1576988 C159.366533,92.1576988 158.775201,92.2874069 158.228048,92.5434246 C157.674098,92.8034071 157.183586,93.1574139 156.770106,93.5952494 C156.352662,94.0376163 156.011682,94.5621127 155.756797,95.1551448 C155.50078,95.7493097 155.353513,96.3876547 155.318396,97.0531874 C155.289509,97.6037386 155.347849,98.1089771 155.492284,98.554176 C155.633886,98.9908787 155.850255,99.3686747 156.13516,99.6745365 C156.420631,99.9809648 156.768974,100.219424 157.169992,100.383683 C158.031503,100.735424 159.205106,100.711635 160.152145,100.317413 C160.658517,100.106708 161.117309,99.8104751 161.51493,99.436644 C161.918214,99.058848 162.262592,98.607985 162.5407,98.0953832 C162.818807,97.5827814 163.014219,97.0118394 163.120704,96.4001157 C163.229455,95.7510089 163.229455,95.1545784 163.119571,94.6317812 C163.011953,94.1180466 162.813143,93.6728477 162.529371,93.3080792 C162.247299,92.9455763 161.885929,92.6601052 161.456023,92.4607286 C161.023285,92.2590864 160.528808,92.1576988 159.986187,92.1576988 Z M33.7968848,91.0616939 C31.5606949,91.0616939 30.0591399,92.0925616 29.2270825,94.0863276 C29.613941,94.0863276 36.9268708,94.1050192 37.2865417,94.1050192 C37.2157403,92.0976593 36.0727234,91.0616939 33.7968848,91.0616939 Z M9.76101603,85.852074 C9.72250009,86.0967635 8.55569385,91.8820833 8.52624049,92.0231196 C8.65596809,92.0231196 12.5637803,92.0024985 13.1021719,91.9996542 L13.1634457,91.9993304 C15.75874,91.9993304 17.2472675,90.7566251 17.2472675,88.5895374 C17.2472675,86.8495234 16.1167116,85.8911563 14.0623396,85.8911563 C14.0623396,85.8911563 9.98758035,85.8628358 9.76101603,85.852074 Z M73.0934463,80.092016 C74.8912342,80.092016 75.9475903,81.1053249 75.9175706,82.8028581 C75.8807539,84.9331291 74.3639058,86.4794306 72.311233,86.4794306 C70.5123123,86.4794306 69.4565226,85.4661217 69.4865424,83.7685885 C69.5233591,81.6383175 71.0407736,80.092016 73.0934463,80.092016 Z M94.8446971,3.55271368e-14 L98.1015592,0.0322854154 L98.8214673,0.0322854154 C111.30063,0.0322854154 121.452977,10.1846325 121.452977,22.6637952 C121.452977,35.1435243 111.30063,45.2958715 98.8214673,45.2958715 L98.8214673,45.2958715 L77.7226651,45.2958715 L74.6306286,56.5481883 C74.1848633,58.2621474 72.2947505,61.5280721 68.3593283,61.5280721 L68.3593283,61.5280721 L57.8558064,61.5280721 C57.5301202,61.5280721 57.2231256,61.3785396 57.0231826,61.1213891 C56.823806,60.864805 56.753571,60.5300563 56.8334349,60.2151318 L56.8334349,60.2151318 L64.6708611,29.259649 C64.789241,28.7906608 65.2100842,28.4632754 65.6932326,28.4632754 L65.6932326,28.4632754 L98.8214673,28.4632754 C101.94409,28.4632754 104.474814,25.9325519 104.474814,22.8093628 C104.474814,19.6867401 101.94409,17.1554502 98.8214673,17.1554502 L98.8214673,17.1554502 L69.2803122,17.099942 C60.9393468,17.099942 56.3463217,13.5156944 56.3463217,7.00650156 L56.3463217,7.00650156 L56.3463217,1.07164923 C56.3463217,0.479749945 56.8255052,3.55271368e-14 57.4174045,3.55271368e-14 L57.4174045,3.55271368e-14 L94.8446971,3.55271368e-14 Z" id="Logo"></path>
            </g>
        </g>
    </g>
</svg>